<svg xmlns="http://www.w3.org/2000/svg" width="800" height="500" viewBox="0 0 800 500">
  <defs>
    <linearGradient id="sky2" x1="0" y1="0" x2="1" y2="1">
      <stop offset="0%" stop-color="#64B5F6"/>
      <stop offset="100%" stop-color="#BBDEFB"/>
    </linearGradient>
  </defs>
  <rect width="800" height="500" fill="url(#sky2)"/>
  <rect y="350" width="800" height="150" fill="#BCAAA4"/>
  <!-- plaza ground pattern -->
  <rect y="350" width="800" height="150" fill="#D7CCC8"/>
  <g opacity="0.3">
    <rect x="0" y="350" width="80" height="80" fill="#A1887F"/>
    <rect x="160" y="350" width="80" height="80" fill="#A1887F"/>
    <rect x="320" y="350" width="80" height="80" fill="#A1887F"/>
    <rect x="480" y="350" width="80" height="80" fill="#A1887F"/>
    <rect x="640" y="350" width="80" height="80" fill="#A1887F"/>
  </g>
  <!-- fountain center -->
  <ellipse cx="400" cy="370" rx="80" ry="25" fill="#4FC3F7"/>
  <ellipse cx="400" cy="355" rx="50" ry="18" fill="#29B6F6"/>
  <rect x="385" y="300" width="30" height="60" fill="#90A4AE" rx="4"/>
  <!-- surrounding buildings -->
  <rect x="40" y="140" width="200" height="210" fill="#8D6E63"/>
  <rect x="60" y="170" width="50" height="40" fill="#FFCC80"/>
  <rect x="560" y="120" width="220" height="230" fill="#78909C"/>
  <rect x="590" y="150" width="55" height="50" fill="#FFE082"/>
  <rect x="670" y="160" width="45" height="45" fill="#FFE082"/>
  <!-- benches & trees -->
  <rect x="120" y="320" width="60" height="12" fill="#6D4C41" rx="3"/>
  <ellipse cx="150" cy="290" rx="45" ry="55" fill="#2E7D32"/>
  <rect x="142" y="295" width="16" height="30" fill="#5D4037"/>
  <ellipse cx="650" cy="285" rx="50" ry="60" fill="#388E3C"/>
  <rect x="642" y="290" width="16" height="32" fill="#5D4037"/>
  <rect x="620" y="325" width="60" height="12" fill="#6D4C41" rx="3"/>
  <!-- cafe umbrellas -->
  <ellipse cx="250" cy="310" rx="35" ry="12" fill="#E53935"/>
  <rect x="246" y="310" width="8" height="35" fill="#795548"/>
  <ellipse cx="530" cy="305" rx="35" ry="12" fill="#FB8C00"/>
  <rect x="526" y="305" width="8" height="35" fill="#795548"/>
  <text x="400" y="480" text-anchor="middle" fill="#1565C0" font-family="sans-serif" font-size="14" font-weight="600">:őWo B Ě ╬:</text>
</svg>
