<svg xmlns="http://www.w3.org/2000/svg" width="800" height="500" viewBox="0 0 800 500">
  <defs>
    <linearGradient id="skyAfter" x1="0" y1="0" x2="0" y2="1">
      <stop offset="0%" stop-color="#81D4FA"/>
      <stop offset="100%" stop-color="#E1F5FE"/>
    </linearGradient>
  </defs>
  <rect width="800" height="500" fill="url(#skyAfter)"/>
  <rect y="360" width="800" height="140" fill="#A5D6A7"/>
  <!-- renovated buildings -->
  <rect x="0" y="100" width="250" height="260" fill="#EFEBE9"/>
  <rect x="30" y="140" width="40" height="50" fill="#B3E5FC"/>
  <rect x="100" y="150" width="35" height="45" fill="#B3E5FC"/>
  <rect x="550" y="80" width="250" height="280" fill="#F5F5F5"/>
  <rect x="580" y="120" width="45" height="55" fill="#C8E6C9"/>
  <!-- green wall / mural -->
  <rect x="180" y="200" width="120" height="80" fill="#66BB6A" rx="4"/>
  <text x="240" y="250" text-anchor="middle" fill="#FFF" font-size="12" font-family="sans-serif" font-weight="600">9 </text>
  <!-- lush tree -->
  <ellipse cx="400" cy="280" rx="65" ry="80" fill="#2E7D32"/>
  <rect x="388" y="290" width="24" height="70" fill="#5D4037"/>
  <!-- bike lane -->
  <rect x="300" y="390" width="200" height="12" fill="#43A047" opacity="0.7" rx="2"/>
  <!-- bench & planter -->
  <rect x="320" y="330" width="55" height="10" fill="#8D6E63" rx="3"/>
  <rect x="500" y="325" width="40" height="25" fill="#795548" rx="4"/>
  <ellipse cx="520" cy="318" rx="25" ry="18" fill="#AB47BC"/>
  <text x="400" y="480" text-anchor="middle" fill="#1565C0" font-family="sans-serif" font-size="14" font-weight="600">9  Ę  ¶░W:</text>
</svg>
